<svg xmlns="http://www.w3.org/2000/svg" viewBox="0 0 293.92 353.7">
  <defs>
    <style>
      .cls-1 {
        fill: #194cfa;
      }
    </style>
  </defs>
  <title>Design Element</title>
  <g id="Layer_2" data-name="Layer 2">
    <g id="Layer_1-2" data-name="Layer 1">
      <path class="cls-1" d="M5,132.6a176.9,176.9,0,0,1,54.3-88.3,180.36,180.36,0,0,1,28.6-20.6,176.69,176.69,0,0,1,205.5,20.6h-117a132,132,0,0,0-33.7,4.3c-3.6,1-7.1,2-10.6,3.3a113.11,113.11,0,0,0-13.9,5.8l-4,2c-1.2.6-2.3,1.3-3.7,2.1s-3.1,1.7-4.2,2.5-2.5,1.7-3.7,2.5-2.4,1.7-3.7,2.6l-1.3.9c-1.5,1.3-2.9,2.3-4.6,3.7s-3.3,2.8-4.9,4.2c-.9.8-1.8,1.7-2.7,2.5l-2.6,2.6-.9.8c-.6.6-.8,1-1.7,1.8s-1.8,1.9-2.5,2.7-1.4,1.7-2.1,2.5c-1.5,1.8-3,3.6-4.4,5.5a3.59,3.59,0,0,0-.7,1,24.76,24.76,0,0,0-1.9,2.6,24.76,24.76,0,0,0-1.9,2.6l-1,1.5c-1.1,1.6-2.2,3.3-3.2,5a115.15,115.15,0,0,0-7.4,14.4c-.7,1.5-1.3,3-1.9,4.5s-1.2,3.1-1.7,4.6a133.15,133.15,0,0,0,11,112c1.1,1.7,2.5,3.9,3.5,5.4s2.4,3.4,3.2,4.6,1.8,2.4,2.8,3.7,2.1,2.6,3.2,3.9a6.89,6.89,0,0,0,1.1,1.3c.5.6.7.9,1.5,1.8s1.2,1.4,2.5,2.7l3.7,3.7c.9.8,1.7,1.7,2.7,2.5l1.6,1.5a134.11,134.11,0,0,0,20.8,15.3c1.9,1.1,3.7,2.2,5.6,3.2a149.1,149.1,0,0,0,17.9,7.8c3.5,1.2,6.9,2.3,10.6,3.2,1.7.5,3.8.9,5.4,1.3,1.3.3,2.6.6,3.9.8l4.1.6c1.1.1,2.1.3,3.1.4,2,.3,3.7.4,5.7.6a52.73,52.73,0,0,0,5.7.4h122.8a175.79,175.79,0,0,1-117,44.2H0V176.8A179,179,0,0,1,5,132.6Z"/>
    </g>
  </g>
</svg>
