<?xml version="1.0" encoding="utf-8"?>
<!-- Generator: Adobe Illustrator 22.0.0, SVG Export Plug-In . SVG Version: 6.00 Build 0)  -->
<svg version="1.1" id="Layer_1" xmlns="http://www.w3.org/2000/svg" xmlns:xlink="http://www.w3.org/1999/xlink" x="0px" y="0px"
	 viewBox="0 0 308.1 307.6" style="enable-background:new 0 0 308.1 307.6;" xml:space="preserve">
<style type="text/css">
	.st0{fill:#194CFA;}
</style>
<g id="Layer_2_1_">
	<g id="Layer_1-2">
		<path class="st0" d="M8.5,102.8c0.6-1.8,1.3-3.5,2-5.3s1.4-3.5,2.2-5.3c2.5-5.7,5.3-11.3,8.5-16.7c1.2-2,2.4-3.9,3.7-5.8l1.2-1.8
			c0.7-1.1,1.4-2.1,2.2-3.1c0.7-1,1.4-2,2.2-3c0.3-0.4,0.6-0.8,0.9-1.1c1.6-2.2,3.3-4.4,5.1-6.4c0.7-1,1.5-2,2.4-2.9
			c0.9-0.9,1.8-2.1,2.9-3.1s1.3-1.4,2-2.1l1-1c1.1-1.1,2-2,3.1-3s2.1-2,3.1-2.9c1.9-1.7,3.8-3.3,5.7-4.9s3.5-2.8,5.3-4.3l1.5-1
			c1.5-1,2.9-2.1,4.3-3s3-2,4.3-2.9s3.1-1.9,4.8-2.9s3-1.7,4.3-2.5l4.7-2.3c5.2-2.5,10.6-4.8,16.1-6.7c4.1-1.5,8.2-2.7,12.3-3.8
			c12.8-3.3,25.9-5,39.1-5l135.8,0l18.9,51.2H154c-18,0-35.6,4.7-51.2,13.7C87.3,74,74.3,87,65.3,102.5
			c-7.7,13.4-12.3,28.3-13.4,43.7c-0.2-0.1-0.4-0.3-0.6-0.5l-0.9-0.9l0.9,0.9c0.2,0.2,0.4,0.4,0.6,0.5c-0.2,2.5-0.3,5-0.3,7.6
			c0,0,0,0,0,0c0,56.6,45.9,102.4,102.5,102.4h154l-18.2,51.4H147.7c-2.4,0-4.2-0.2-6.6-0.4s-4.3-0.4-6.6-0.7
			c-1.1-0.2-2.3-0.3-3.5-0.5l-4.7-0.6c-1.6-0.2-3.1-0.6-4.6-0.9c-1.9-0.4-4.3-0.9-6.3-1.5c-4.3-1.1-8.2-2.4-12.3-3.8
			c-7.1-2.6-14.1-5.6-20.8-9.1c-2.2-1.2-4.3-2.4-6.5-3.7c-8.6-5.1-16.7-11-24.1-17.7l-1.9-1.8c-1.1-0.9-2.2-1.9-3.2-2.9l-4.3-4.3
			c-1.5-1.5-2-2.1-2.9-3.1c-0.6-0.7-1.2-1.4-1.8-2.1c-0.5-0.5-0.9-1-1.3-1.5c-1.3-1.5-2.5-3-3.7-4.6s-2.2-2.9-3.3-4.3
			s-2.6-3.5-3.7-5.3s-2.7-4.3-4-6.3C-1.6,193.3-6.4,145.9,8.5,102.8z"/>
	</g>
</g>
</svg>
