<svg xmlns="http://www.w3.org/2000/svg" viewBox="0 0 308.08 307.6">
  <defs>
    <style>
      .cls-1 {
        fill: #194cfa;
      }
    </style>
  </defs>
  <title>Design Element 2</title>
  <g id="Layer_2" data-name="Layer 2">
    <g id="Layer_1-2" data-name="Layer 1">
      <path class="cls-1" d="M286.5,232.5c-1.3,2-2.9,4.5-4,6.3s-2.6,3.9-3.7,5.3-2.1,2.7-3.3,4.3-2.4,3.1-3.7,4.6a17.38,17.38,0,0,1-1.3,1.5,23.12,23.12,0,0,1-1.8,2.1c-.9,1-1.4,1.6-2.9,3.1l-4.3,4.3a29.86,29.86,0,0,1-3.2,2.9l-1.9,1.8a153.93,153.93,0,0,1-24.1,17.7c-2.2,1.3-4.3,2.5-6.5,3.7a167.82,167.82,0,0,1-20.8,9.1c-4.1,1.4-8,2.7-12.3,3.8-2,.6-4.4,1.1-6.3,1.5-1.5.3-3,.7-4.6.9l-4.7.6c-1.2.2-2.4.3-3.5.5-2.3.3-4.2.5-6.6.7s-4.2.4-6.6.4H18.2L0,256.2H154A102.43,102.43,0,0,0,256.5,153.8c0-2.6-.1-5.1-.3-7.6a2.65,2.65,0,0,0,.6-.5l.9-.9-.9.9a3.17,3.17,0,0,1-.6.5,102.28,102.28,0,0,0-13.4-43.7,104.76,104.76,0,0,0-37.5-37.6,102.55,102.55,0,0,0-51.2-13.7H0L18.9,0H154.7a156.44,156.44,0,0,1,39.1,5c4.1,1.1,8.2,2.3,12.3,3.8a160.82,160.82,0,0,1,16.1,6.7l4.7,2.3c1.3.8,2.6,1.5,4.3,2.5s3.5,2,4.8,2.9,2.9,2,4.3,2.9,2.8,2,4.3,3l1.5,1c1.8,1.5,3.4,2.7,5.3,4.3s3.8,3.2,5.7,4.9c1,.9,2,1.9,3.1,2.9s2,1.9,3.1,3l1,1c.7.7.9,1.1,2,2.1s2,2.2,2.9,3.1a21.72,21.72,0,0,1,2.4,2.9,65.07,65.07,0,0,1,5.1,6.4,10.63,10.63,0,0,1,.9,1.1,33,33,0,0,1,2.2,3,34.57,34.57,0,0,1,2.2,3.1l1.2,1.8c1.3,1.9,2.5,3.8,3.7,5.8a145.5,145.5,0,0,1,8.5,16.7c.8,1.8,1.5,3.5,2.2,5.3s1.4,3.5,2,5.3A155.56,155.56,0,0,1,286.5,232.5Z"/>
    </g>
  </g>
</svg>
