<?xml version="1.0" encoding="utf-8"?>
<!-- Generator: Adobe Illustrator 22.0.0, SVG Export Plug-In . SVG Version: 6.00 Build 0)  -->
<svg version="1.1" id="Layer_1" xmlns="http://www.w3.org/2000/svg" xmlns:xlink="http://www.w3.org/1999/xlink" x="0px" y="0px"
	 viewBox="0 0 337.4 101.8" style="enable-background:new 0 0 337.4 101.8;" xml:space="preserve">
<style type="text/css">
	.st0{fill:#28F199;}
	.st1{fill:#194CFA;}
	.st2{font-family:'ArialMT';}
	.st3{font-size:36px;}
</style>
<title>Logo</title>
<g>
	<path class="st0" d="M62.4,47.8c-0.1,0.1-0.2,0.1-0.2,0.2l-0.1,0.1c-0.6,0.6-1.3,1.1-2,1.6c0.7-0.5,1.4-1.1,2-1.6
		c0.1,0,0.1-0.1,0.1-0.1L62.4,47.8z"/>
	<path class="st1" d="M62,48.2C62,48.2,62,48.1,62,48.2c-0.3-3.6-1.3-7.1-3.1-10.2c-2.1-3.7-5.2-6.7-8.8-8.8
		c-3.6-2.1-7.8-3.2-12-3.2H2v48h36.1c13.3,0,24-10.7,24-24C62.1,49.3,62.1,48.7,62,48.2z M41.7,49.4v1.9c0,4.6-3.8,8.4-8.5,8.3l0,0
		l-10.8-0.1l0.2-19.2l10.3,0.1C37.8,40.4,41.8,44.5,41.7,49.4L41.7,49.4z"/>
	<path class="st1" d="M86.2,49.9v48H38.1c-11.7,0-23-4.3-31.8-12h33.4c0.6,0,1,0,1.6-0.1c0.5,0,1-0.1,1.5-0.2c0.3,0,0.5-0.1,0.8-0.1
		l1.1-0.1c0.4,0,0.7-0.1,1.1-0.2s1-0.2,1.5-0.3c1-0.3,1.9-0.5,2.9-0.9c1.7-0.6,3.3-1.3,4.9-2.1c0.5-0.3,1-0.6,1.5-0.9
		c2-1.2,3.9-2.6,5.6-4.2l0.4-0.4c0.3-0.2,0.5-0.5,0.7-0.7l1-1c0.3-0.4,0.5-0.5,0.7-0.7s0.3-0.3,0.4-0.5c0.1-0.1,0.2-0.2,0.3-0.3
		c0.3-0.4,0.6-0.7,0.9-1.1s0.5-0.7,0.8-1s0.6-0.8,0.9-1.2c0.3-0.4,0.6-1,0.9-1.5c5.4-9.2,6.5-20.3,3-30.4c-0.1-0.4-0.3-0.8-0.5-1.2
		s-0.3-0.8-0.5-1.2c-0.6-1.4-1.3-2.7-2-3.9c-0.3-0.5-0.6-0.9-0.9-1.4L68,29.9c-0.2-0.2-0.3-0.5-0.5-0.7c-0.2-0.3-0.3-0.5-0.5-0.7
		c-0.1-0.1-0.1-0.2-0.2-0.3c-0.4-0.5-0.8-1-1.2-1.5c-0.2-0.2-0.4-0.5-0.6-0.7s-0.4-0.5-0.7-0.7S64,25,63.8,24.8l-0.2-0.2
		c-0.2-0.3-0.5-0.5-0.7-0.7c-0.3-0.2-0.5-0.5-0.7-0.7c-0.4-0.4-0.9-0.8-1.3-1.1c-0.4-0.4-0.8-0.7-1.3-1L59.3,21
		c-0.3-0.3-0.7-0.5-1-0.7s-0.7-0.5-1-0.7s-0.8-0.5-1.1-0.7c-0.4-0.2-0.7-0.4-1-0.6l-1.1-0.5c-1.2-0.6-2.5-1.1-3.8-1.6
		c-1-0.3-1.9-0.6-2.9-0.9c-3-0.8-6.1-1.2-9.2-1.2H6.4c2.4-2.1,5-4,7.8-5.6c14.9-8.6,33.2-8.6,48.1,0c2.8,1.6,5.4,3.5,7.8,5.6
		c7.2,6.3,12.3,14.7,14.8,24C85.8,41.8,86.2,45.8,86.2,49.9z"/>
	<text transform="matrix(1 0 0 1 104.1799 69.1149)" class="st2 st3">DIGITAL AIMZ</text>
</g>
</svg>
