<svg xmlns="http://www.w3.org/2000/svg" viewBox="0 0 925.73 57.52">
  <defs>
    <style>
      .cls-1 {
        fill: #194cfa;
        stroke-width: 2px;
      }
      .cls-1, .cls-2 {
        stroke: #194cfa;
        stroke-miterlimit: 10;
      }
      .cls-2 {
        fill: #fff;
        stroke-width: 3px;
      }
    </style>
  </defs>
  <title>Wave</title>
  <g id="Layer_2" data-name="Layer 2">
    <g id="Layer_1-2" data-name="Layer 1">
      <g>
        <g>
          <path class="cls-1" d="M50,56.52c-18,0-34.06-8-48.94-24.26l.09-.95c38.39,42,77.45,20.62,115.21,0C135.24,21,154.78,10.29,174,7.66c21.57-2.95,40.44,4.79,57.69,23.65l-.09.95c-38.39-42-77.44-20.62-115.21,0C97.49,42.6,78,53.28,58.73,55.91A65.36,65.36,0,0,1,50,56.52Z"/>
          <path class="cls-1" d="M281,56.52c-18,0-34.5-8-49.38-24.26l.09-.95c38.4,42,77.89,20.62,115.65,0C366.24,21,385.78,10.29,405,7.66c21.57-2.95,40.44,4.79,57.69,23.65l-.09.95c-38.39-42-77.44-20.62-115.21,0-18.9,10.32-38.44,21-57.66,23.63A65.36,65.36,0,0,1,281,56.52Z"/>
          <path class="cls-1" d="M512,56.52c-18,0-34.5-8-49.38-24.26l.09-.95c38.4,42,77.89,20.62,115.65,0C597.24,21,616.78,10.29,636,7.66c21.57-2.95,40.44,4.79,57.69,23.65l-.09.95c-38.39-42-77.44-20.62-115.21,0-18.9,10.32-38.44,21-57.66,23.63A65.36,65.36,0,0,1,512,56.52Z"/>
          <path class="cls-1" d="M743,56.52c-18,0-34.5-8-49.38-24.26l.09-.95c38.4,42,77.89,20.62,115.65,0C828.24,21,847.78,10.29,867,7.66c21.57-2.95,40.44,4.79,57.69,23.65l-.09.95c-38.39-42-77.44-20.62-115.21,0-18.9,10.32-38.44,21-57.66,23.63A65.36,65.36,0,0,1,743,56.52Z"/>
        </g>
        <circle class="cls-2" cx="187.77" cy="7.05" r="5.55"/>
        <circle class="cls-2" cx="420.35" cy="7.05" r="5.55"/>
        <circle class="cls-2" cx="650.17" cy="7.05" r="5.55"/>
      </g>
    </g>
  </g>
</svg>
