<svg version="1.1" id="Layer_1" xmlns="http://www.w3.org/2000/svg" xmlns:xlink="http://www.w3.org/1999/xlink" x="0px" y="0px" viewBox="0 -10 850 80" style="enable-background:new 0 -10 850 80;" xml:space="preserve">
	<style type="text/css">
		.st00{fill:transparent;}
		.st01{fill:#194CFA;}
		.st02{fill:#FFFFFF;stroke:#194CFA;stroke-width:3;stroke-miterlimit:10;}
	</style>
	<g id="Layer_1-2">
		<g>
			<path id="st01-1" class="st01" d="M194.9,10.4c-26.1-5.6-52.3,8.7-77.9,22.7l-0.2,0.1c-18.9,10.3-38.5,21-57.9,23.7C56,57.3,53,57.5,50,57.5    c-18.3,0-34.5-8-49.7-24.6L0,32.6L0.4,29l1.5,1.7C39.7,72,78.4,50.9,115.8,30.5l0.4-0.2C135,20,154.6,9.3,173.9,6.7    c7.5-1,14.7-0.8,21.6,0.7"></path>
			<path class="st00" d="M420.4,9.5c-24.3-2.7-48.6,10.6-72.4,23.6l-0.1,0.1c-19,10.4-38.6,21.1-58,23.7c-3,0.4-6,0.6-8.9,0.6    c-17.7,0-34.1-7.7-48.6-23l0,0l-1.5-1.7c-12-13-24-19.8-36-22.4"></path>
			<path class="st00" d="M650.6,9.5c-24-2.3-48.1,10.8-71.6,23.6l-0.1,0.1c-19,10.4-38.6,21.1-58,23.7c-2.9,0.4-5.9,0.6-8.9,0.6    c-17.7,0-34.1-7.7-48.6-23l0,0l-1.5-1.7c-13.8-15-27.6-21.7-41.5-23.3"></path>
			<path class="st00" d="M650.8,6.4c15.3,1.5,29.2,9,42.2,22.6l0,0l1.5,1.7c38,41.5,76.8,20.3,114.4-0.2l0.3-0.1    C828,20,847.6,9.3,866.9,6.7c21.9-3,41.1,4.8,58.6,24l0.2,0.3l-0.3,3.6l-1.5-1.7C886-8.4,847.4,12.7,810,33.1l-0.1,0.1    c-19,10.4-38.6,21.1-58,23.7c-2.9,0.4-5.9,0.6-8.9,0.6c-17.7,0-34.1-7.7-48.6-23l0,0l-1.5-1.7c-14-15.3-28.2-22-42.3-23.3"></path>
		</g>
		<g>
			<path class="st01" d="M925.7,31l-0.3,3.6l-1.5-1.7C886-8.4,847.4,12.7,810,33.1l-0.1,0.1c-19,10.4-38.6,21.1-58,23.7    c-2.9,0.4-5.9,0.6-8.9,0.6c-17.7,0-34.1-7.7-48.6-23l0,0l-1.5-1.7C655-8.4,616.4,12.7,579,33.1l-0.1,0.1    c-19,10.4-38.6,21.1-58,23.7c-2.9,0.4-5.9,0.6-8.9,0.6c-17.7,0-34.1-7.7-48.6-23l0,0l-1.5-1.7C424-8.4,385.4,12.7,348,33.1    l-0.1,0.1c-19,10.4-38.6,21.1-58,23.7c-3,0.4-6,0.6-8.9,0.6c-17.7,0-34.1-7.7-48.6-23l0,0l-1.5-1.7C193-8.4,154.4,12.7,117,33.1    l-0.2,0.1c-18.9,10.3-38.5,21-57.9,23.7C56,57.3,53,57.5,50,57.5c-18.3,0-34.5-8-49.7-24.6L0,32.6L0.4,29l1.5,1.7    C39.7,72,78.4,50.9,115.8,30.5l0.4-0.2C135,20,154.6,9.3,173.9,6.7c21.3-2.9,40,4.4,57.1,22.3l0,0l1.5,1.7    c38,41.5,76.8,20.3,114.4-0.2l0.3-0.1C366,20,385.6,9.3,404.9,6.7c21.3-2.9,40,4.4,57.1,22.3l0,0l1.5,1.7    c38,41.5,76.8,20.3,114.4-0.2l0.3-0.1C597,20,616.6,9.3,635.9,6.7c21.3-2.9,40,4.4,57.1,22.3l0,0l1.5,1.7    c38,41.5,76.8,20.3,114.4-0.2l0.3-0.1C828,20,847.6,9.3,866.9,6.7c21.9-3,41.1,4.8,58.6,24L925.7,31z"></path>
		</g>
		<g>
			<circle class="st02" cx="187.8" cy="7.1" r="5.6">
				<animateTransform attributeName="transform" type="translate" begin="Layer_1.mouseover" repeatCount="1" id="an1" dur="0.5" values="0, -6;0,6;0,0"></animateTransform>
				</circle>
			<circle class="st02" cx="420.4" cy="7.1" r="5.5">
				<animateTransform attributeName="transform" type="translate" repeatCount="1" id="an2" dur="0.5" values="0, -6;0,6;0,0" begin="an1.begin+0.1"></animateTransform>
				</circle>
			<circle class="st02" cx="650.2" cy="7.1" r="5.5">
				<animateTransform attributeName="transform" type="translate" id="an3" repeatCount="1" dur="0.5" values="0, -6;0,6;0,0" begin="an2.begin+0.2"></animateTransform>
				</circle>
		</g>
	</g>
</svg>
