<svg id="Layer_1" data-name="Layer 1" xmlns="http://www.w3.org/2000/svg" viewBox="0 0 106.32 75.33">
  <defs>
    <style>
      .cls-1 {
        fill: #194cfa;
      }
    </style>
  </defs>
  <title>Digital Marketing</title>
  <path class="cls-1" d="M34.92,3.17V6.28A1.92,1.92,0,0,1,33,8.2H-19.57a1.92,1.92,0,0,0-1.92,1.92V64h0v3.7a1.92,1.92,0,0,0,1.92,1.92H58.88c1.06,0,.92-.86.92-1.92V60.21h0V23.81a1.93,1.93,0,0,1,2.39-1.87L67,23.4a1.92,1.92,0,0,0,2.38-1.86h0V-3.16C69.4-4.41,68.23-4.32,67-4L48.16,1.19a1.84,1.84,0,0,1-.47.06H36.84A1.92,1.92,0,0,0,34.92,3.17ZM37.71,4h8.71V15.15H37.71ZM55.6,66.84H-17.29a1.43,1.43,0,0,1-1.42-1.42h0A1.42,1.42,0,0,1-17.29,64H55.6A1.42,1.42,0,0,1,57,65.42h0A1.43,1.43,0,0,1,55.6,66.84ZM49,3.66,66.43-.69V20.08L49,15.72Zm8,18.22V59.32a1.9,1.9,0,0,1-1.9,1.89H-16.81a1.9,1.9,0,0,1-1.9-1.89V12.88A1.9,1.9,0,0,1-16.81,11H33a1.89,1.89,0,0,1,1.89,1.89v3.36a1.89,1.89,0,0,0,1.89,1.89H47.7a1.82,1.82,0,0,1,.46.06L55.58,20A1.89,1.89,0,0,1,57,21.88Z" transform="translate(21.49 5.71)"/>
  <path class="cls-1" d="M14,28.65V45.88a1.41,1.41,0,0,0,2.41,1l9.28-9.27a1.42,1.42,0,0,0,0-2l-9.28-9.27a1.41,1.41,0,0,0-2.41,1Z" transform="translate(21.49 5.71)"/>
  <rect class="cls-1" x="76.71" y="-4.74" width="7.92" height="3.17" rx="1.58" transform="translate(29.83 38.41) rotate(-24.13)"/>
  <rect class="cls-1" x="76.91" y="8.51" width="7.92" height="3.17" rx="1.58" transform="translate(21.02 10.8) rotate(-3.6)"/>
  <rect class="cls-1" x="79.09" y="19.52" width="3.17" height="7.92" rx="1.58" transform="translate(48.19 93.58) rotate(-66.25)"/>
</svg>
