<svg xmlns="http://www.w3.org/2000/svg" viewBox="0 0 91 68">
  <defs>
    <style>
      .cls-1 {
        fill: #194cfa;
      }
    </style>
  </defs>
  <title>E.commerce</title>
  <g id="Layer_2" data-name="Layer 2">
    <g id="Layer_1-2" data-name="Layer 1">
      <g>
        <path class="cls-1" d="M83.89,68H7.11A7.12,7.12,0,0,1,0,60.89V7.11A7.12,7.12,0,0,1,7.11,0H83.89A7.12,7.12,0,0,1,91,7.11V60.89A7.12,7.12,0,0,1,83.89,68ZM7.11,2.71A4.41,4.41,0,0,0,2.7,7.11V60.89a4.41,4.41,0,0,0,4.41,4.4H83.89a4.41,4.41,0,0,0,4.41-4.4V7.11a4.41,4.41,0,0,0-4.41-4.4Z"/>
        <path class="cls-1" d="M57,21.24a.33.33,0,0,0-.3-.29l-2.81-.21-2.07-2a.82.82,0,0,0-.76-.1l-1,.32c-.62-1.79-1.72-3.44-3.65-3.44h-.17a2.34,2.34,0,0,0-1.82-1c-4.5,0-6.65,5.63-7.32,8.49l-3.15,1c-1,.3-1,.33-1.14,1.25-.1.7-2.65,20.47-2.65,20.47l19.91,3.73L60.86,47S57.07,21.41,57,21.24Zm-10.95-1.3v.2l-3.48,1.08c.67-2.59,1.93-3.84,3-4.31A8.51,8.51,0,0,1,46.09,19.94Zm-1.79-4.3a1,1,0,0,1,.58.2c-1.45.68-3,2.39-3.65,5.81l-2.75.85C39.25,19.89,41.07,15.64,44.3,15.64Zm.78,15.24a6.09,6.09,0,0,0-2.6-.63c-2.09,0-2.2,1.32-2.2,1.65,0,1.81,4.71,2.5,4.71,6.74,0,3.33-2.11,5.47-5,5.47A6.88,6.88,0,0,1,34.87,42l.91-3a6.56,6.56,0,0,0,3.31,1.54,1.34,1.34,0,0,0,1.4-1.35c0-2.36-3.87-2.46-3.87-6.34,0-3.26,2.34-6.42,7.07-6.42a5.74,5.74,0,0,1,2.72.53Zm2.19-11.11c0-.11,0-.23,0-.36a8.2,8.2,0,0,0-.41-2.72c1,.12,1.66,1.26,2.09,2.56Z"/>
      </g>
    </g>
  </g>
</svg>
