<svg height="512" viewBox="0 0 64 64" width="512" xmlns="http://www.w3.org/2000/svg" xmlns:xlink="http://www.w3.org/1999/xlink"><path d="m37 7h-6v-2h6zm-8-2h-2v2h2zm-6 48.586 2.414 2.414-2.414 2.414c-.378.378-.88.586-1.414.586h-.586c-1.103 0-2-.897-2-2v-2c0-1.103.897-2 2-2h.586c.534 0 1.036.208 1.414.586zm-.414 2.414-1-1h-.586v2h.586zm12.414-1v2c0 1.103-.897 2-2 2h-2c-1.103 0-2-.897-2-2v-2c0-1.103.897-2 2-2h2c1.103 0 2 .897 2 2zm-1.999 2-.001-2h-2v2zm11.999-2v2c0 1.103-.897 2-2 2h-.586c-.534 0-1.036-.208-1.414-.586l-2.414-2.414 2.414-2.414c.378-.378.88-.586 1.414-.586h.586c1.103 0 2 .897 2 2zm-1.999 2-.001-2h-.586l-1 1 1 1zm-27.001-16c-4.962 0-9-4.038-9-9s4.038-9 9-9 9 4.038 9 9-4.038 9-9 9zm0-2c3.86 0 7-3.14 7-7s-3.14-7-7-7-7 3.14-7 7 3.14 7 7 7zm0-2c-2.757 0-5-2.243-5-5s2.243-5 5-5 5 2.243 5 5-2.243 5-5 5zm0-2c1.654 0 3-1.346 3-3s-1.346-3-3-3-3 1.346-3 3 1.346 3 3 3zm47-2c0 6.617-5.383 12-12 12v13c0 2.757-2.243 5-5 5h-28c-2.757 0-5-2.243-5-5v-11h-.777l-.713-2.802c-.319-.119-.639-.252-.956-.4l-2.49 1.48-5.342-5.342 1.48-2.49c-.147-.317-.281-.636-.4-.956l-2.802-.713v-7.555l2.802-.713c.119-.319.252-.639.4-.956l-1.48-2.489 5.342-5.342 2.49 1.48c.317-.147.636-.281.956-.4l.713-2.802h.777v-11c0-2.757 2.243-5 5-5h28c2.757 0 5 2.243 5 5v15c6.617 0 12 5.383 12 12zm-48-16h2v-8h30v12.7c.644-.229 1.311-.403 2-.519v-15.181c0-1.654-1.346-3-3-3h-28c-1.654 0-3 1.346-3 3zm24 16c0-4.43 2.419-8.297 6-10.376v-11.624h-26v6h.777l.713 2.802c.319.119.639.252.956.4l2.49-1.48 5.342 5.342-1.48 2.489c.147.317.281.637.4.956l2.802.714v7.555l-2.802.713c-.119.319-.252.639-.4.956l1.48 2.49-5.342 5.342-2.49-1.48c-.317.147-.636.281-.956.4l-.713 2.801h-.777v2h26v-5.624c-3.581-2.079-6-5.946-6-10.376zm-26.35 9.477.528.169.599 2.354h4.445l.599-2.354.528-.169c.56-.179 1.125-.416 1.683-.704l.493-.254 2.095 1.246 3.143-3.143-1.246-2.095.254-.493c.288-.558.525-1.124.704-1.683l.169-.528 2.356-.6v-4.445l-2.354-.599-.169-.528c-.179-.559-.416-1.125-.704-1.684l-.254-.493 1.246-2.095-3.143-3.143-2.095 1.246-.493-.254c-.558-.288-1.124-.525-1.683-.704l-.528-.169-.6-2.355h-4.445l-.599 2.354-.528.169c-.56.179-1.125.416-1.683.704l-.493.254-2.095-1.246-3.143 3.143 1.246 2.095-.254.493c-.288.559-.525 1.125-.704 1.684l-.169.528-2.356.599v4.445l2.354.599.169.528c.179.56.416 1.125.704 1.683l.254.493-1.246 2.095 3.143 3.143 2.095-1.246.493.254c.559.29 1.125.527 1.684.706zm36.35 2.342c-.689-.116-1.356-.291-2-.519v6.7h-30v-4h-2v11c0 1.654 1.346 3 3 3h28c1.654 0 3-1.346 3-3zm2-1.819c2.62 0 5-1.021 6.785-2.675-.76-3.114-3.534-5.325-6.785-5.325s-6.025 2.211-6.785 5.325c1.785 1.654 4.165 2.675 6.785 2.675zm0-10c1.654 0 3-1.346 3-3s-1.346-3-3-3-3 1.346-3 3 1.346 3 3 3zm10 0c0-5.514-4.486-10-10-10s-10 4.486-10 10c0 2.057.626 3.971 1.695 5.562.923-2.25 2.708-4.005 4.925-4.901-.989-.914-1.62-2.211-1.62-3.661 0-2.757 2.243-5 5-5s5 2.243 5 5c0 1.45-.631 2.747-1.62 3.661 2.217.896 4.002 2.651 4.925 4.901 1.069-1.591 1.695-3.505 1.695-5.562zm-16.764-14-13.236 6.618v-13.236zm-11.236 3.382 6.764-3.382-6.764-3.382z" fill="#194cfa"/></svg>