<svg xmlns="http://www.w3.org/2000/svg" viewBox="0 0 91 67">
  <defs>
    <style>
      .cls-1 {
        fill: #194cfa;
      }
    </style>
  </defs>
  <title>SEO</title>
  <g id="Layer_2" data-name="Layer 2">
    <g id="Layer_1-2" data-name="Layer 1">
      <g>
        <g>
          <path class="cls-1" d="M58.17,66.45H89.4c.73,0,1-.67,1-1.34V1.84c0-.57-.26-1.29-1-1.29H1.6c-.78,0-1,.72-1,1.29V65.11c0,.67.31,1.34,1,1.34l32.59,0m0,0,24,0m28.38-1.34H4.42a2.54,2.54,0,0,1-2.56-2.52h0a2.54,2.54,0,0,1,2.56-2.52H86.53a2.54,2.54,0,0,1,2.56,2.52,2.43,2.43,0,0,1-2.54,2.52m2.59-6.37H4.42a2.54,2.54,0,0,1-2.56-2.52V4.41A2.54,2.54,0,0,1,4.42,1.89H86.53a2.54,2.54,0,0,1,2.56,2.52V58.74Z"/>
          <path class="cls-1" d="M89.4,67H58.17v0l-24,0L1.6,67A1.69,1.69,0,0,1,0,65.11V1.84A1.66,1.66,0,0,1,1.6,0H89.4A1.66,1.66,0,0,1,91,1.84V65.11A1.69,1.69,0,0,1,89.4,67ZM34.19,65.85v0l24,.05H89.4c.46,0,.48-.66.48-.79V1.84c0-.18,0-.74-.48-.74H1.6c-.45,0-.48.56-.48.74V65.11c0,.13,0,.79.48.79Zm52.36-.19H4.42a3.07,3.07,0,1,1,0-6.14H86.53a3.09,3.09,0,0,1,3.11,3.07,3.31,3.31,0,0,1-.87,2.24A3,3,0,0,1,86.55,65.66Zm-82.13-5a2,2,0,1,0,0,3.93H86.55A2,2,0,0,0,88,64.07a2.29,2.29,0,0,0,.57-1.47,2,2,0,0,0-2-2Zm84.72-1.34H4.42A3.1,3.1,0,0,1,1.3,56.22V4.41A3.09,3.09,0,0,1,4.42,1.34H86.53a3.09,3.09,0,0,1,3.11,3.07V58.74h-.5ZM4.42,2.44a2,2,0,0,0-2,2V56.22a2,2,0,0,0,2,2H88.53V4.41a2,2,0,0,0-2-2Z"/>
        </g>
        <g>
          <path class="cls-1" d="M54,47.22a14.68,14.68,0,0,1-14.29-11,14.35,14.35,0,0,1,1.72-11,14.58,14.58,0,0,1,9.08-6.58,16.63,16.63,0,0,1,3.54-.41A14.7,14.7,0,0,1,68.34,29.23a14.34,14.34,0,0,1-1.73,11,14.5,14.5,0,0,1-9.07,6.58A16.44,16.44,0,0,1,54,47.22Zm0-27.75a16.82,16.82,0,0,0-3.23.36,13.24,13.24,0,0,0-8.29,6,13,13,0,0,0-1.57,10A13.3,13.3,0,0,0,54,45.94a17.85,17.85,0,0,0,3.23-.36,13.29,13.29,0,0,0,8.29-6,13,13,0,0,0,1.56-10A13.3,13.3,0,0,0,54,19.47Z"/>
          <path class="cls-1" d="M54,47.87A15.3,15.3,0,0,1,39.08,36.33a15,15,0,0,1,1.79-11.49A15.18,15.18,0,0,1,50.35,18a16.77,16.77,0,0,1,3.7-.43A15.29,15.29,0,0,1,69,29.08a15,15,0,0,1-1.8,11.48,15.21,15.21,0,0,1-9.47,6.88A17.54,17.54,0,0,1,54,47.87Zm3-1.6a19.07,19.07,0,0,1-2.61.3A16,16,0,0,0,57,46.27ZM54.67,18.84a13.94,13.94,0,0,1,13,10.55A13.7,13.7,0,0,1,66,39.9a14.07,14.07,0,0,1-6.31,5.51,13.85,13.85,0,0,0-5-26.57ZM50.9,20.46A12.63,12.63,0,0,0,43,26.18a12.41,12.41,0,0,0-1.48,9.53A12.66,12.66,0,0,0,54,45.3,16.68,16.68,0,0,0,57,45a12.64,12.64,0,0,0,7.87-5.72,12.43,12.43,0,0,0,1.49-9.54A12.66,12.66,0,0,0,54,20.11,16.7,16.7,0,0,0,50.9,20.46Z"/>
        </g>
        <g>
          <path class="cls-1" d="M54.05,41.62A10.05,10.05,0,0,1,47.34,39a.6.6,0,0,1,0-.89l0,0a.64.64,0,0,1,.86,0,8.73,8.73,0,0,0,11.33.24.63.63,0,0,1,.86,0l0,0a.6.6,0,0,1,0,.88A9.78,9.78,0,0,1,54.05,41.62Z"/>
          <path class="cls-1" d="M54.05,42.26a10.72,10.72,0,0,1-7.15-2.74,1.24,1.24,0,0,1,0-1.84l0,0a1.29,1.29,0,0,1,1.75,0,8.09,8.09,0,0,0,10.47.22,1.29,1.29,0,0,1,1.75.09l0,0a1.23,1.23,0,0,1-.08,1.8A10.4,10.4,0,0,1,54.05,42.26Zm-1.3-1.37a9.36,9.36,0,0,0,1.3.09,9.12,9.12,0,0,0,5.89-2.1A9.43,9.43,0,0,1,52.75,40.89Zm7.18-2h0Z"/>
        </g>
        <g>
          <path class="cls-1" d="M67.08,37.87A13.13,13.13,0,0,1,65.31,41L80.8,50.26l1.87-3.09Z"/>
          <path class="cls-1" d="M81,51.14l-16.67-10,.45-.57a12.61,12.61,0,0,0,1.68-3l.29-.7,16.8,10ZM66.26,40.82l14.31,8.55,1.21-2L67.39,38.8A15.28,15.28,0,0,1,66.26,40.82Z"/>
        </g>
        <g>
          <path class="cls-1" d="M80.47,50.81,64.89,41.5a.6.6,0,0,1-.18-.87l0,0a16.15,16.15,0,0,0,1.71-3s0,0,0,0h0a.61.61,0,0,1,.89-.31L83,46.56a.6.6,0,0,1,.22.82L81.32,50.6A.62.62,0,0,1,80.47,50.81ZM66.75,41.13,80,49.06a.61.61,0,0,0,.85-.21l.58-1a.6.6,0,0,0-.21-.82L68,39.13a.62.62,0,0,0-.86.24c-.17.31-.35.62-.54.91A.61.61,0,0,0,66.75,41.13Z"/>
          <path class="cls-1" d="M80.78,51.54a1.28,1.28,0,0,1-.65-.18L64.55,42.05a1.25,1.25,0,0,1-.58-.82,1.23,1.23,0,0,1,.22-1l0,0a15.51,15.51,0,0,0,1.64-2.89,1.24,1.24,0,0,1,.77-.76,1.28,1.28,0,0,1,1.08.1L83.33,46a1.24,1.24,0,0,1,.44,1.69l-1.89,3.22a1.24,1.24,0,0,1-.78.58A1.12,1.12,0,0,1,80.78,51.54Zm-.85-1.81.84.51.53-.9a1.25,1.25,0,0,1-.67.42A1.19,1.19,0,0,1,79.93,49.73ZM67.13,40.6l13.18,7.89.53-.89L67.66,39.7C67.47,40,67.3,40.34,67.13,40.6Zm.51-2.2a1.28,1.28,0,0,1,.66.18l13.25,7.94A1.24,1.24,0,0,1,82.1,48l.52-.89L67.06,37.8v0A16.13,16.13,0,0,1,65.27,41h0l1,.58a1.28,1.28,0,0,1-.39-.65,1.24,1.24,0,0,1,.17-1c.17-.25.33-.53.51-.86a1.24,1.24,0,0,1,.79-.62A1.26,1.26,0,0,1,67.64,38.4Zm-.55,2.18Z"/>
        </g>
        <g>
          <path class="cls-1" d="M54.83,30.62A2.47,2.47,0,0,0,52,28.72a2,2,0,0,0-.93.41L45.5,25.22a8.3,8.3,0,0,0-1,.88l5.68,4A2.21,2.21,0,0,0,50,31.55a2.46,2.46,0,0,0,2.86,1.9A2.39,2.39,0,0,0,54.83,30.62Zm-2.14,1.85A1.41,1.41,0,0,1,51,31.39a1.4,1.4,0,0,1,1.09-1.64,1.43,1.43,0,0,1,1.67,1.08A1.36,1.36,0,0,1,52.69,32.47Z"/>
          <path class="cls-1" d="M52.44,33.86a2.81,2.81,0,0,1-1.57-.48,2.78,2.78,0,0,1-1.2-1.76,2.68,2.68,0,0,1,.07-1.38l-5.81-4.1.32-.3a7,7,0,0,1,1-.91l.22-.16L51,28.68a2.13,2.13,0,0,1,.87-.32,2.84,2.84,0,0,1,3.3,2.19h0a2.81,2.81,0,0,1-.46,2.15A2.65,2.65,0,0,1,53,33.81,2.29,2.29,0,0,1,52.44,33.86Zm-7.35-7.81L50.66,30l-.13.28a1.93,1.93,0,0,0-.13,1.21,2.11,2.11,0,0,0,2.43,1.62,2,2,0,0,0,1.29-.81A2.06,2.06,0,0,0,52,29.08h0a1.54,1.54,0,0,0-.76.34l-.22.17-5.53-3.91A5,5,0,0,0,45.09,26.05Zm7.33,6.82a1.81,1.81,0,0,1-1.76-1.4,1.78,1.78,0,0,1,3.49-.72,1.72,1.72,0,0,1-1.38,2.08h0A1.45,1.45,0,0,1,52.42,32.87Zm0-2.78a.75.75,0,0,0-.21,0,1,1,0,0,0-.8,1.21,1.05,1.05,0,0,0,1.23.79,1,1,0,0,0,.8-1.21A1,1,0,0,0,52.4,30.09Z"/>
        </g>
        <g>
          <path class="cls-1" d="M35.33,16.69a2.46,2.46,0,0,0-2.86-1.9,2.44,2.44,0,0,0-1.93,2.83,2.5,2.5,0,0,0,.47,1l-7.93,9.77a3.16,3.16,0,0,0-1.2-.1,2.74,2.74,0,0,0-1.09.51l-7.14-3a2.26,2.26,0,0,0,0-.82,2.47,2.47,0,0,0-2.87-1.9,2.43,2.43,0,0,0-1.93,2.82,2.35,2.35,0,0,0,.62,1.19L1.86,36.22v2.27l8.71-10.7a2.11,2.11,0,0,0,1.15.06,2.18,2.18,0,0,0,1.4-.88l6.94,2.88a2.43,2.43,0,1,0,4.69.31A2.88,2.88,0,0,0,24.18,29l7.87-9.72a2.38,2.38,0,0,0,1.35.11,2.28,2.28,0,0,0,1.1-.57l8,5.71.94-.93-8.24-5.76A2.89,2.89,0,0,0,35.33,16.69ZM12.08,26.61a1.14,1.14,0,0,1-.62.31,2,2,0,0,0-.26,0,.72.72,0,0,1-.32,0c-.05,0-.05,0-.1-.05a.41.41,0,0,1-.21-.1c-.05,0-.05-.06-.1-.06s-.11-.1-.16-.1l-.05-.05-.21-.2a1.42,1.42,0,0,1-.21-.52,1.4,1.4,0,0,1,1.09-1.64,1.42,1.42,0,0,1,1.67,1.08v.15A1.46,1.46,0,0,1,12.08,26.61Zm10.53,5.45A1.44,1.44,0,0,1,20.94,31a.85.85,0,0,1,.06-.62l.15-.3h0a1.84,1.84,0,0,1,.52-.52h0a2.81,2.81,0,0,1,.37-.15h.05c.11,0,.21-.05.31,0a.72.72,0,0,1,.32.05h.05a.41.41,0,0,1,.21.1l.05.05c0,.05.16.11.21.16a0,0,0,0,1,.05.05.5.5,0,0,1,.21.26,1.48,1.48,0,0,1,.21.51A1.34,1.34,0,0,1,22.61,32.06Zm11.68-14.8h0a1.42,1.42,0,0,1-.68,1.08c-.15.05-.26.15-.41.15a.75.75,0,0,1-.47,0,1.36,1.36,0,0,1-1-.77,2.62,2.62,0,0,1-.15-.36,1.4,1.4,0,0,1,1.09-1.64,1.42,1.42,0,0,1,1.67,1.07Z"/>
          <path class="cls-1" d="M1.49,39.53V36.09l7.5-9A2.9,2.9,0,0,1,8.48,26a2.71,2.71,0,0,1,.44-2.08,2.79,2.79,0,0,1,1.78-1.18A2.85,2.85,0,0,1,14,25a2.54,2.54,0,0,1,0,.66l6.68,2.79A3.42,3.42,0,0,1,21.79,28h.05a3.43,3.43,0,0,1,1.1.06l7.61-9.38a2.52,2.52,0,0,1-.38-.94,2.81,2.81,0,0,1,2.22-3.25,2.86,2.86,0,0,1,3.31,2.19v0a3,3,0,0,1-.05,1.07L44,23.58,42.57,25l-8-5.72a2.8,2.8,0,0,1-2.34.42L24.65,29a3.19,3.19,0,0,1,.46,1,2.68,2.68,0,0,1-.43,2.09,2.84,2.84,0,0,1-1.79,1.19,2.81,2.81,0,0,1-2.1-.43,2.77,2.77,0,0,1-1.2-1.76v0a3.27,3.27,0,0,1,0-1.07l-6.37-2.64a2.6,2.6,0,0,1-1.44.79,2.49,2.49,0,0,1-1.09,0Zm.75-3.17v1.08l8.19-10.07.24.07a1.78,1.78,0,0,0,1,0h0a1.74,1.74,0,0,0,1.16-.71l.17-.25,7.55,3.13-.12.33a2.15,2.15,0,0,0-.09,1,2,2,0,0,0,.89,1.29,2.06,2.06,0,0,0,1.54.32,2.09,2.09,0,0,0,1.31-.88,1.94,1.94,0,0,0,.32-1.52,2.41,2.41,0,0,0-.49-1L23.7,29l8.23-10.15.25.09a2,2,0,0,0,1.14.09,1.83,1.83,0,0,0,.92-.47l.22-.22,8,5.7.4-.39L34.8,18l.07-.25a2.77,2.77,0,0,0,.1-1,2.1,2.1,0,0,0-2.43-1.6,2.07,2.07,0,0,0-1.64,2.39v0a2.23,2.23,0,0,0,.41.88l.15.22L23.22,28.83,23,28.76a2.81,2.81,0,0,0-1-.09,2.39,2.39,0,0,0-.92.43l-.18.15-7.63-3.19.06-.29a2,2,0,0,0,0-.69,2.09,2.09,0,0,0-2.43-1.6,2,2,0,0,0-1.31.87,2,2,0,0,0-.33,1.52,2.05,2.05,0,0,0,.53,1l.24.23Zm20.1-3.9a1.81,1.81,0,0,1-1.76-1.4,1.21,1.21,0,0,1,.08-.86l.16-.31a1.93,1.93,0,0,1,.63-.64l.06,0a3.69,3.69,0,0,1,.41-.17L22,29h.15a.79.79,0,0,1,.34,0,1,1,0,0,1,.32.05.82.82,0,0,1,.45.21l.05,0,.05,0,.08.06a.34.34,0,0,1,.16.13.92.92,0,0,1,.24.32,1.83,1.83,0,0,1,.25.61,1.45,1.45,0,0,1-.21,1.13,1.85,1.85,0,0,1-1.17.81h0A2.21,2.21,0,0,1,22.34,32.46Zm-.47-2.6a1.33,1.33,0,0,0-.38.36l-.16.31a.49.49,0,0,0,0,.36,1.05,1.05,0,0,0,1.23.81,1.1,1.1,0,0,0,.69-.48.74.74,0,0,0,.12-.56,1.1,1.1,0,0,0-.16-.4l0,0a.88.88,0,0,0-.06-.1L22.92,30V30a.57.57,0,0,1-.15-.12l-.05,0h-.09l-.08,0h-.23l0,0h0l-.16,0ZM11.2,27.34a1.1,1.1,0,0,1-.41-.06.44.44,0,0,1-.19-.07,1,1,0,0,1-.21-.11l0,0h0l-.1-.1h-.06l-.41-.42a1.78,1.78,0,0,1,1.12-2.72A1.8,1.8,0,0,1,13,25.2v.23a1.85,1.85,0,0,1-.65,1.45,1.49,1.49,0,0,1-.8.4h-.07l-.07,0A1.08,1.08,0,0,1,11.2,27.34ZM11,26.57l0,0h.13l.23-.05a.72.72,0,0,0,.41-.2l0,0a1.1,1.1,0,0,0,.39-.9v-.11A1.05,1.05,0,0,0,11,24.56a1,1,0,0,0-.8,1.21,1.07,1.07,0,0,0,.13.35l.17.17a.91.91,0,0,1,.16.11h.05l.11.1h.1ZM33,18.9a1.12,1.12,0,0,1-.31,0,1.71,1.71,0,0,1-1.3-1,3.23,3.23,0,0,1-.18-.4v-.05a1.77,1.77,0,0,1,1.38-2.07,1.81,1.81,0,0,1,2.12,1.36v.58a1.8,1.8,0,0,1-.86,1.36l-.07,0-.1,0a1,1,0,0,1-.37.13A1.54,1.54,0,0,1,33,18.9Zm-1.07-1.63a1.82,1.82,0,0,0,.13.28,1,1,0,0,0,.75.58h.07a.33.33,0,0,0,.24,0l.06,0h.06l.08,0,.17-.08a1,1,0,0,0,.47-.76v-.4a1.05,1.05,0,0,0-1.22-.76A1,1,0,0,0,31.89,17.27Z"/>
        </g>
      </g>
    </g>
  </g>
</svg>
