<svg xmlns="http://www.w3.org/2000/svg" viewBox="0 0 82 82">
  <defs>
    <style>
      .cls-1 {
        fill: #194cfa;
      }
    </style>
  </defs>
  <title>Wordpress</title>
  <g id="Layer_2" data-name="Layer 2">
    <g id="Layer_1-2" data-name="Layer 1">
      <g>
        <g>
          <path class="cls-1" d="M27.22,74.3l-2.41-1.17A35.16,35.16,0,0,1,5,41.5a34.88,34.88,0,0,1,3-14.3l1.09-2.44ZM9,30.68A32.57,32.57,0,0,0,7.17,41.5,33.23,33.23,0,0,0,23.29,69.85Z"/>
          <path class="cls-1" d="M31.7,65.83,17.81,24.53l1.42-.08c2-.11,3.81-.32,3.83-.32a.31.31,0,0,0,.32-.37.28.28,0,0,0-.35-.28c-.2,0-5.57.43-9.14.43-.61,0-1.36,0-2.23,0L9.74,23.8l1.06-1.61a35.14,35.14,0,0,1,53.09-6.61l2.2,2-3-.14h-.22l-.17,0a4.83,4.83,0,0,0-4.64,5c0,2.28,1.29,4.36,2.78,6.77l.42.68a18.85,18.85,0,0,1,3,9.93c0,2.9-1,6.07-2.36,10.46l-.27.88-4.37,14.6L43.38,24.53l1.42-.08c2-.11,3.81-.32,3.83-.32a.31.31,0,0,0,.31-.37.27.27,0,0,0-.34-.28c-.2,0-5.58.43-9.14.43-3.36,0-8.83-.42-9.06-.44-.06,0-.3,0-.32.35s.14.3.25.31h.07s1.73.22,3.51.32l.71,0L40.3,40.06ZM20.76,26.52,31.69,59,38,40.09,33.07,26.56c-1.45-.1-2.69-.25-2.9-.28a2.39,2.39,0,0,1-2.25-2.59,2.45,2.45,0,0,1,2.63-2.37c.08,0,5.64.43,8.91.43,3.47,0,8.94-.43,9-.43a2.43,2.43,0,0,1,2.65,2.26,2.47,2.47,0,0,1-2.22,2.7c-.06,0-1.13.13-2.55.24L57.11,58.57l2.42-8.09.28-.88c1.31-4.21,2.26-7.25,2.26-9.82a16.86,16.86,0,0,0-2.66-8.84L59,30.31c-1.6-2.58-3.11-5-3.11-7.91a7.13,7.13,0,0,1,4.69-6.78,33,33,0,0,0-46.86,6.13h.14c3.48,0,8.94-.43,9-.43a2.42,2.42,0,0,1,2.65,2.26,2.46,2.46,0,0,1-2.22,2.7C23.25,26.29,22.18,26.41,20.76,26.52Z"/>
          <path class="cls-1" d="M40.16,76.65a35.07,35.07,0,0,1-9.93-1.43l-1.09-.32L40.72,41.24,52.24,72.8a1.38,1.38,0,0,0,.14.25l.74,1.15-1.29.46A35.07,35.07,0,0,1,40.16,76.65Zm-8.23-3.21A33.05,33.05,0,0,0,50,73L40.78,47.72Z"/>
          <path class="cls-1" d="M55.3,73.35,66.68,40.46a31.18,31.18,0,0,0,2.51-11.8A26,26,0,0,0,69,25.3l-.78-5.76,2.8,5.1A35.16,35.16,0,0,1,57.82,71.88ZM68.7,41.24,59.32,68.33a33,33,0,0,0,12-37.72A34.71,34.71,0,0,1,68.7,41.24Z"/>
        </g>
        <path class="cls-1" d="M41,82A41,41,0,1,1,82,41,41,41,0,0,1,41,82ZM41,2.16A38.84,38.84,0,1,0,79.84,41,38.89,38.89,0,0,0,41,2.16Z"/>
      </g>
    </g>
  </g>
</svg>
